<svg xmlns="http://www.w3.org/2000/svg" xmlns:xlink="http://www.w3.org/1999/xlink" width="1080" zoomAndPan="magnify" viewBox="0 0 810 449.999984" height="600" preserveAspectRatio="xMidYMid meet" version="1.0"><defs><clipPath id="a928d80bd5"><path d="M 722 186 L 784.402344 186 L 784.402344 265 L 722 265 Z M 722 186 " clip-rule="nonzero"/></clipPath><clipPath id="49ac3239a6"><path d="M 23.269531 164.433594 L 146 164.433594 L 146 286.914062 L 23.269531 286.914062 Z M 23.269531 164.433594 " clip-rule="nonzero"/></clipPath></defs><rect x="-81" width="972" fill="#ffffff" y="-44.999998" height="539.99998" fill-opacity="1"/><rect x="-81" width="972" fill="#ffffff" y="-44.999998" height="539.99998" fill-opacity="1"/><path fill="#000000" d="M 179.40625 264.449219 L 179.40625 186.917969 L 211.210938 186.917969 C 218.597656 186.917969 224.5625 188.988281 229.113281 193.117188 C 233.648438 197.257812 235.933594 202.636719 235.933594 209.28125 C 235.933594 214.371094 234.46875 218.789062 231.550781 222.519531 C 228.636719 226.25 224.691406 228.808594 219.746094 230.21875 L 236.261719 264.449219 L 226.84375 264.449219 L 211.105469 231.328125 L 187.941406 231.328125 L 187.941406 264.449219 Z M 210.539062 194.449219 L 187.925781 194.449219 L 187.925781 224.246094 L 210.539062 224.246094 C 215.628906 224.246094 219.71875 222.875 222.78125 220.144531 C 225.839844 217.417969 227.382812 213.832031 227.382812 209.398438 C 227.382812 204.96875 225.855469 201.277344 222.78125 198.546875 C 219.71875 195.820312 215.628906 194.449219 210.539062 194.449219 Z M 210.539062 194.449219 " fill-opacity="1" fill-rule="nonzero"/><path fill="#000000" d="M 256.628906 264.449219 L 256.628906 186.917969 L 309.59375 186.917969 L 309.59375 194.34375 L 265.164062 194.34375 L 265.164062 221.582031 L 295.964844 221.582031 L 295.964844 229.007812 L 265.164062 229.007812 L 265.164062 257.027344 L 310.042969 257.027344 L 310.042969 264.449219 Z M 256.628906 264.449219 " fill-opacity="1" fill-rule="nonzero"/><path fill="#000000" d="M 323.996094 252.367188 L 329.207031 246.171875 C 333.867188 250.523438 338.246094 253.632812 342.335938 255.480469 C 346.4375 257.324219 351 258.25 356.015625 258.25 C 362.003906 258.25 366.949219 256.757812 370.867188 253.765625 C 374.785156 250.773438 376.738281 247.066406 376.738281 242.636719 C 376.738281 238.800781 375.417969 235.847656 372.808594 233.777344 C 370.183594 231.707031 365.738281 230.125 359.457031 229.015625 L 346.9375 226.90625 C 339.839844 225.652344 334.65625 223.492188 331.371094 220.433594 C 328.085938 217.375 326.4375 213.246094 326.4375 208.078125 C 326.4375 201.578125 328.917969 196.261719 333.867188 192.125 C 338.8125 187.984375 345.195312 185.925781 353.03125 185.925781 C 358.796875 185.925781 364.152344 186.71875 369.101562 188.3125 C 374.046875 189.90625 378.929688 192.386719 383.730469 195.789062 L 379.296875 202.433594 C 375.3125 199.480469 371.078125 197.1875 366.605469 195.566406 C 362.136719 193.941406 357.652344 193.125 353.140625 193.125 C 347.742188 193.125 343.3125 194.46875 339.839844 197.171875 C 336.371094 199.863281 334.628906 203.210938 334.628906 207.195312 C 334.628906 210.597656 335.777344 213.246094 338.058594 215.171875 C 340.355469 217.097656 344.074219 218.453125 349.246094 219.273438 L 361.660156 221.382812 C 369.867188 222.859375 375.84375 225.257812 379.613281 228.582031 C 383.386719 231.902344 385.261719 236.4375 385.261719 242.203125 C 385.261719 245.523438 384.523438 248.621094 383.042969 251.511719 C 381.566406 254.386719 379.523438 256.863281 376.898438 258.933594 C 374.273438 261.003906 371.144531 262.625 367.53125 263.8125 C 363.917969 265 360 265.578125 355.789062 265.578125 C 349.734375 265.578125 344.101562 264.484375 338.890625 262.308594 C 333.679688 260.132812 328.71875 256.824219 323.984375 252.394531 Z M 323.996094 252.367188 " fill-opacity="1" fill-rule="nonzero"/><path fill="#000000" d="M 405.339844 264.445312 L 405.339844 186.914062 L 458.304688 186.914062 L 458.304688 194.339844 L 413.875 194.339844 L 413.875 221.582031 L 444.675781 221.582031 L 444.675781 229.003906 L 413.875 229.003906 L 413.875 257.023438 L 458.753906 257.023438 L 458.753906 264.445312 Z M 405.339844 264.445312 " fill-opacity="1" fill-rule="nonzero"/><path fill="#000000" d="M 472.15625 264.449219 L 502.851562 186.917969 L 513.050781 186.917969 L 543.300781 264.449219 L 534.105469 264.449219 L 524.910156 240.082031 L 490.335938 240.082031 L 481.140625 264.449219 Z M 492.984375 233.332031 L 522.351562 233.332031 L 507.617188 194.566406 Z M 492.984375 233.332031 " fill-opacity="1" fill-rule="nonzero"/><path fill="#000000" d="M 559.6875 264.449219 L 559.6875 186.917969 L 591.492188 186.917969 C 598.882812 186.917969 604.84375 188.988281 609.394531 193.117188 C 613.929688 197.257812 616.210938 202.636719 616.210938 209.28125 C 616.210938 214.371094 614.75 218.789062 611.835938 222.519531 C 608.917969 226.25 604.988281 228.808594 600.027344 230.21875 L 616.542969 264.449219 L 607.125 264.449219 L 591.386719 231.328125 L 568.21875 231.328125 L 568.21875 264.449219 Z M 590.816406 194.449219 L 568.207031 194.449219 L 568.207031 224.246094 L 590.816406 224.246094 C 595.914062 224.246094 600 222.875 603.0625 220.148438 C 606.121094 217.417969 607.667969 213.832031 607.667969 209.398438 C 607.667969 204.96875 606.136719 201.277344 603.0625 198.550781 C 600 195.820312 595.914062 194.449219 590.816406 194.449219 Z M 590.816406 194.449219 " fill-opacity="1" fill-rule="nonzero"/><path fill="#000000" d="M 672.941406 257.898438 C 677.375 257.898438 681.660156 256.976562 685.789062 255.128906 C 689.933594 253.285156 693.402344 250.660156 696.210938 247.273438 L 701.753906 252.914062 C 697.980469 256.976562 693.585938 260.113281 688.5625 262.328125 C 683.535156 264.542969 678.257812 265.652344 672.714844 265.652344 C 667.175781 265.652344 661.992188 264.597656 657.152344 262.5 C 652.3125 260.390625 648.144531 257.554688 644.632812 253.96875 C 641.125 250.382812 638.351562 246.164062 636.320312 241.285156 C 634.289062 236.40625 633.273438 231.210938 633.273438 225.671875 C 633.273438 220.136719 634.289062 214.914062 636.320312 209.996094 C 638.351562 205.089844 641.136719 200.84375 644.683594 197.257812 C 648.234375 193.671875 652.402344 190.851562 657.203125 188.78125 C 662.007812 186.710938 667.175781 185.683594 672.714844 185.683594 C 678.257812 185.683594 683.800781 186.789062 688.890625 189.003906 C 693.984375 191.21875 698.351562 194.359375 701.964844 198.417969 L 696.316406 204.289062 C 693.445312 200.886719 689.890625 198.234375 685.6875 196.308594 C 681.476562 194.382812 677.148438 193.433594 672.714844 193.433594 C 668.285156 193.433594 664.300781 194.265625 660.53125 195.925781 C 656.757812 197.589844 653.511719 199.855469 650.78125 202.746094 C 648.050781 205.617188 645.886719 209.035156 644.300781 212.988281 C 642.703125 216.945312 641.917969 221.164062 641.917969 225.671875 C 641.917969 230.183594 642.703125 234.402344 644.300781 238.359375 C 645.886719 242.3125 648.050781 245.730469 650.78125 248.601562 C 653.511719 251.476562 656.78125 253.757812 660.582031 255.421875 C 664.378906 257.082031 668.511719 257.914062 672.941406 257.914062 Z M 672.941406 257.898438 " fill-opacity="1" fill-rule="nonzero"/><g clip-path="url(#a928d80bd5)"><path fill="#000000" d="M 722.800781 264.449219 L 722.800781 186.917969 L 731.335938 186.917969 L 731.335938 221.582031 L 775.886719 221.582031 L 775.886719 186.917969 L 784.421875 186.917969 L 784.421875 264.449219 L 775.886719 264.449219 L 775.886719 229.230469 L 731.335938 229.230469 L 731.335938 264.449219 Z M 722.800781 264.449219 " fill-opacity="1" fill-rule="nonzero"/></g><g clip-path="url(#49ac3239a6)"><path fill="#000000" d="M 84.5625 164.429688 C 50.714844 164.429688 23.289062 191.839844 23.289062 225.675781 C 23.289062 259.507812 50.714844 286.921875 84.5625 286.921875 C 118.414062 286.921875 145.839844 259.507812 145.839844 225.675781 C 145.839844 191.839844 118.402344 164.429688 84.5625 164.429688 Z M 84.5625 265.019531 C 62.824219 265.019531 45.1875 247.40625 45.1875 225.660156 C 45.1875 203.917969 62.808594 186.304688 84.5625 186.304688 C 92.136719 186.304688 99.207031 188.453125 105.222656 192.15625 L 99.589844 201.414062 C 95.222656 198.699219 90.078125 197.128906 84.5625 197.128906 C 68.824219 197.128906 56.015625 209.933594 56.015625 225.660156 C 56.015625 241.390625 68.824219 254.195312 84.5625 254.195312 C 97.003906 254.195312 107.597656 246.207031 111.5 235.089844 L 74.195312 225.464844 L 123.929688 225.464844 C 123.929688 225.53125 123.929688 225.597656 123.929688 225.660156 C 123.929688 247.390625 106.304688 265.019531 84.550781 265.019531 Z M 84.5625 265.019531 " fill-opacity="1" fill-rule="nonzero"/></g></svg>