<svg width="54" height="55" viewBox="0 0 54 55" fill="none" xmlns="http://www.w3.org/2000/svg">
<path d="M18.1923 45.54V50.6268C18.1923 53.2139 16.7702 54.6961 14.287 54.6961C11.8311 54.6961 10.42 53.2412 10.42 50.7033V45.5455H12.2523V50.6432C12.2523 52.1528 12.9852 52.9568 14.3143 52.9568C15.638 52.9568 16.3654 52.1747 16.3654 50.7088V45.5455C16.36 45.54 18.1923 45.54 18.1923 45.54ZM37.5164 51.7426L39.5128 45.5455H41.4108L38.2767 54.5649H36.7507L34.6996 48.6413L32.6484 54.5649H31.1334L27.9883 45.5455H29.9355L31.9265 51.7426L33.9721 45.54H35.4653L37.5164 51.7426ZM1.92021 49.1773H6.05523V45.54H7.88755V54.5594H6.05523V50.8948H1.92021V54.5594H0.0878906V45.54H1.92021V49.1773ZM24.7285 45.5947L28.6666 54.5594H26.7467L25.9372 52.6833H21.8077L20.9872 54.5594H19.1166L23.0876 45.5455H24.6902L24.7285 45.5947ZM42.8875 45.5455H49.5276V47.1864H44.698V49.0351H48.029V50.676H44.698V52.9076H49.7027V54.5485H42.8875C42.8875 54.5539 42.8875 45.5455 42.8875 45.5455ZM51.8796 45.54H53.6845V54.5485H51.8796V45.54ZM23.8697 47.8209L22.4914 51.0479H25.259C25.259 51.0534 23.8697 47.8209 23.8697 47.8209Z" fill="black"/>
<path fill-rule="evenodd" clip-rule="evenodd" d="M3.85636 15.9769C4.03685 19.3407 6.57475 21.3316 6.57475 21.3316C10.666 25.3025 20.5769 30.3182 22.8796 31.4558C22.9125 31.4668 23.0328 31.5051 23.0984 31.4175C23.0984 31.4175 23.1969 31.341 23.1422 31.2206C16.8357 17.4974 8.21016 7.09424 8.21016 7.09424C8.21016 7.09424 3.52271 11.5301 3.85636 15.9769Z" fill="url(#paint0_radial_474_2177)"/>
<path fill-rule="evenodd" clip-rule="evenodd" d="M4.86279 35.2352C6.65135 38.413 9.66511 40.8798 12.8047 40.1195C14.9706 39.5781 19.8769 36.1705 21.4959 35.0219C21.6217 34.9125 21.5724 34.814 21.5724 34.814C21.5341 34.6664 21.3591 34.6609 21.3591 34.6609L4.86279 35.2352Z" fill="url(#paint1_radial_474_2177)"/>
<path fill-rule="evenodd" clip-rule="evenodd" d="M0.913689 27.8622C2.70225 31.6307 6.12075 32.7739 6.12075 32.7739C7.696 33.4193 9.27671 33.4631 9.27671 33.4631C9.52285 33.5068 19.0892 33.4685 21.649 33.4576C21.7584 33.4576 21.8185 33.3482 21.8185 33.3482C21.9006 33.2169 21.7584 33.1021 21.7584 33.1021C14.5166 28.2287 0.470651 20.7517 0.470651 20.7517C-0.803766 24.6898 0.913689 27.8622 0.913689 27.8622Z" fill="url(#paint2_radial_474_2177)"/>
<path fill-rule="evenodd" clip-rule="evenodd" d="M20.2598 0.503203C15.8896 1.62447 14.8613 5.57352 14.8613 5.57352C14.0627 8.05672 14.8832 10.786 14.8832 10.786C16.3381 17.2292 23.5142 27.8184 25.0566 30.039C25.166 30.1484 25.2535 30.1101 25.2535 30.1101C25.4176 30.0664 25.4122 29.9078 25.4122 29.9078C27.7805 6.26816 22.918 0 22.918 0C22.2015 0.0656352 20.2598 0.503203 20.2598 0.503203Z" fill="url(#paint3_radial_474_2177)"/>
<path d="M28.2508 29.9242C28.2672 30.0719 28.3766 30.1047 28.3766 30.1047C28.4039 30.1211 28.4586 30.1211 28.4586 30.1211C28.5626 30.1157 28.6227 30.0172 28.6227 30.0172C30.2034 27.7364 37.3413 17.2074 38.7907 10.7916C38.7907 10.7916 39.1353 9.42418 39.1463 7.89269V7.73954C39.1408 7.00662 39.0533 6.24634 38.8181 5.58452C38.8181 5.58452 37.7406 1.57531 33.3649 0.514204C33.3649 0.514204 32.1069 0.196967 30.7668 0.0110006C30.7613 6.14161e-05 25.877 6.26822 28.2508 29.9242Z" fill="url(#paint4_radial_474_2177)"/>
<path fill-rule="evenodd" clip-rule="evenodd" d="M32.2873 34.6773C32.2873 34.6773 32.1396 34.6992 32.1013 34.8086C32.1013 34.8086 32.063 34.9562 32.1615 35.0328C33.7422 36.1595 38.5281 39.496 40.8363 40.1414C40.8363 40.1414 45.0971 41.5909 48.8055 35.2516C48.8055 35.2461 32.2873 34.6718 32.2873 34.6773Z" fill="url(#paint5_radial_474_2177)"/>
<path fill-rule="evenodd" clip-rule="evenodd" d="M31.921 33.0855C31.921 33.0855 31.7897 33.173 31.8389 33.3262C31.8389 33.3262 31.9046 33.452 32.0085 33.452C34.6011 33.4574 44.43 33.4684 44.6816 33.4192C44.6816 33.4192 45.9505 33.3699 47.5203 32.7683C47.5203 32.7683 51.0154 31.6634 52.8313 27.7089C52.8313 27.7089 54.4503 24.4818 53.1977 20.7188C53.1923 20.7188 39.1737 28.2121 31.921 33.0855Z" fill="url(#paint6_radial_474_2177)"/>
<path fill-rule="evenodd" clip-rule="evenodd" d="M30.548 31.1604C30.548 31.1604 30.4769 31.319 30.5972 31.4229C30.5972 31.4229 30.712 31.5104 30.8214 31.4393C33.1843 30.2688 43.0187 25.286 47.0935 21.337C47.0935 21.337 49.6697 19.2749 49.8064 15.9604C50.1018 11.3604 45.4526 7.09961 45.4526 7.09961C45.4526 7.09961 36.8489 17.4645 30.548 31.1604Z" fill="url(#paint7_radial_474_2177)"/>
<defs>
<radialGradient id="paint0_radial_474_2177" cx="0" cy="0" r="1" gradientUnits="userSpaceOnUse" gradientTransform="translate(33.8154 4.9487) scale(38.679 38.5231)">
<stop stop-color="#FAB8A0"/>
<stop offset="0.4" stop-color="#EE2C28"/>
<stop offset="0.8" stop-color="#DE1A21"/>
<stop offset="0.9" stop-color="#C9161D"/>
<stop offset="1" stop-color="#9A080C"/>
</radialGradient>
<radialGradient id="paint1_radial_474_2177" cx="0" cy="0" r="1" gradientUnits="userSpaceOnUse" gradientTransform="translate(33.8325 4.91343) scale(38.7626 38.6064)">
<stop stop-color="#FAB8A0"/>
<stop offset="0.4" stop-color="#EE2C28"/>
<stop offset="0.8" stop-color="#DE1A21"/>
<stop offset="0.9" stop-color="#C9161D"/>
<stop offset="1" stop-color="#9A080C"/>
</radialGradient>
<radialGradient id="paint2_radial_474_2177" cx="0" cy="0" r="1" gradientUnits="userSpaceOnUse" gradientTransform="translate(33.8412 4.90627) scale(38.755 38.5988)">
<stop stop-color="#FAB8A0"/>
<stop offset="0.4" stop-color="#EE2C28"/>
<stop offset="0.8" stop-color="#DE1A21"/>
<stop offset="0.9" stop-color="#C9161D"/>
<stop offset="1" stop-color="#9A080C"/>
</radialGradient>
<radialGradient id="paint3_radial_474_2177" cx="0" cy="0" r="1" gradientUnits="userSpaceOnUse" gradientTransform="translate(33.8278 4.98721) scale(38.7528 38.5967)">
<stop stop-color="#FAB8A0"/>
<stop offset="0.4" stop-color="#EE2C28"/>
<stop offset="0.8" stop-color="#DE1A21"/>
<stop offset="0.9" stop-color="#C9161D"/>
<stop offset="1" stop-color="#9A080C"/>
</radialGradient>
<radialGradient id="paint4_radial_474_2177" cx="0" cy="0" r="1" gradientUnits="userSpaceOnUse" gradientTransform="translate(33.8594 4.90218) scale(38.7577 38.6015)">
<stop stop-color="#FAB8A0"/>
<stop offset="0.4" stop-color="#EE2C28"/>
<stop offset="0.8" stop-color="#DE1A21"/>
<stop offset="0.9" stop-color="#C9161D"/>
<stop offset="1" stop-color="#9A080C"/>
</radialGradient>
<radialGradient id="paint5_radial_474_2177" cx="0" cy="0" r="1" gradientUnits="userSpaceOnUse" gradientTransform="translate(33.8636 4.89518) scale(38.8005 38.6442)">
<stop stop-color="#FAB8A0"/>
<stop offset="0.4" stop-color="#EE2C28"/>
<stop offset="0.8" stop-color="#DE1A21"/>
<stop offset="0.9" stop-color="#C9161D"/>
<stop offset="1" stop-color="#9A080C"/>
</radialGradient>
<radialGradient id="paint6_radial_474_2177" cx="0" cy="0" r="1" gradientUnits="userSpaceOnUse" gradientTransform="translate(33.8451 4.91601) scale(38.7567 38.6005)">
<stop stop-color="#FAB8A0"/>
<stop offset="0.4" stop-color="#EE2C28"/>
<stop offset="0.8" stop-color="#DE1A21"/>
<stop offset="0.9" stop-color="#C9161D"/>
<stop offset="1" stop-color="#9A080C"/>
</radialGradient>
<radialGradient id="paint7_radial_474_2177" cx="0" cy="0" r="1" gradientUnits="userSpaceOnUse" gradientTransform="translate(33.8538 4.91101) scale(38.7369 38.5809)">
<stop stop-color="#FAB8A0"/>
<stop offset="0.4" stop-color="#EE2C28"/>
<stop offset="0.8" stop-color="#DE1A21"/>
<stop offset="0.9" stop-color="#C9161D"/>
<stop offset="1" stop-color="#9A080C"/>
</radialGradient>
</defs>
</svg>
